PathFileType	4	(X/Y/Z)	OpenSim_Sub02_EMGBaseline_Accel.trc
DataRate	CameraRate	NumFrames	NumMarkers	Units	OrigDataRate	OrigDataStartFrame	OrigNumFrames
100	100	17	8	m	100	4205	6727
Frame#	Time	torso_imu_offset_imu	pelvis_imu_offset_imu	tibia_r_imu_offset_imu	femur_r_imu_offset_imu	tibia_l_imu_offset_imu	femur_l_imu_offset_imu	toes_r_imu_offset_imu	toes_l_imu_offset_imu
				X1	Y1	Z1	X2	Y2	Z2	X3	Y3	Z3	X4	Y4	Z4	X5	Y5	Z5	X6	Y6	Z6	X7	Y7	Z7	X8		Y8	Z8	

4205	42.04000000	8.81949199	-0.49522186	8.06975609	9.82737222	-5.35652063	6.06194295	5.28999538	12.50020377	-0.13951288	3.97120948	3.03573163	3.66818179	14.84182385	1.37595114	-1.34369278	9.52088651	-2.43291155	-0.66402421	4.54610205	-0.10352612	9.10681737	12.52887867	0.44127874	12.99064838
4206	42.05000000	8.57254870	-1.10248512	7.72521644	9.34726270	-3.26774948	6.15808667	7.42782599	10.47537762	-0.11231049	4.53117232	3.88992383	-0.56236084	13.62752970	-1.09148345	-0.14782280	8.85002169	-2.74915469	-0.84100176	5.73752620	0.53813295	8.97557608	16.81913385	2.84320252	13.43267475
4207	42.06000000	8.19770773	-1.51470526	7.35659664	8.52235973	-1.04203384	6.06468460	10.15073716	5.35226861	0.59303960	6.58453700	4.25153229	-2.46125979	12.11220208	-3.75338823	0.81120012	9.08645423	-2.92195456	-0.37220023	5.22299640	-0.81681230	8.52034480	16.20807054	4.33796119	13.60935300
4208	42.07000000	8.00356952	-1.61610370	7.01750438	8.13265150	0.44047234	5.89683553	14.28985351	2.08385705	-1.93547466	8.59875818	3.16086824	-2.57011348	10.57718084	-6.33544488	1.70173859	10.28777925	-2.62618033	0.24833018	4.59579644	-0.34546987	9.05606373	16.60144136	7.14020047	15.15609525
4209	42.08000000	8.10805958	-1.50791057	6.79856309	8.29059313	1.25426609	5.70613064	15.83449731	5.74951520	-2.01686771	10.78130051	0.37348099	-3.14907964	9.44161692	-8.64435276	2.31189592	11.76355303	-1.96146600	0.67038224	4.41665323	0.81151314	9.41623566	14.29421290	9.15285806	14.88961688
4210	42.09000000	8.47794318	-1.32860390	6.66596489	8.69323411	1.80616455	5.45086029	12.97418701	8.30634564	2.06518687	12.71075013	-2.65937957	-3.66458957	8.23643749	-9.68300446	1.77550888	12.69645677	-1.29873930	0.79933160	4.32340689	1.26791754	9.25325339	11.74407040	7.90072806	13.83294137
4211	42.10000000	9.02291346	-1.14348470	6.61164796	9.25211581	2.28388885	5.23507669	10.99112404	2.75583188	3.54860523	15.66911446	-4.50750372	-3.67573047	6.87493501	-9.08914014	1.58539145	12.64939651	-0.90742967	0.79037499	4.56074719	1.25111845	9.33132052	5.45833410	7.28482309	14.14185554
4212	42.11000000	9.55101636	-0.97484518	6.62036675	9.97760079	2.86441179	5.13145395	9.92089847	-3.00967602	3.08809822	15.55494328	-5.79909230	-3.19592107	5.40382474	-8.87288362	2.72936421	12.19517893	-0.64213089	1.01604245	4.67868795	1.79651815	9.40877888	9.68078818	3.01813571	16.85093499
4213	42.12000000	9.84075410	-0.84103310	6.67303104	10.25817691	3.17147735	4.97658139	7.60822947	-3.27591967	0.96310066	10.83148341	-6.51200244	-2.33176763	4.04862117	-10.24129990	4.48577348	12.13434790	-0.49122928	1.23482783	4.21810062	2.27481959	9.29734057	19.89138142	2.62321969	24.32609063
4214	42.13000000	9.77446125	-0.66486232	6.72989071	9.75605657	2.71385981	4.79911611	7.47462529	-1.06565831	-1.07195484	7.74298957	-5.12618905	-1.64794727	2.87397072	-12.28509766	5.09698575	12.25559185	-0.41098198	1.03922335	4.04686083	1.00386401	9.26208234	11.46080438	8.36707352	22.62265311
4215	42.14000000	9.43881689	-0.41493713	6.81617723	9.36800781	1.34682742	4.64476118	9.32644751	1.31645054	-0.89711516	6.94647395	-2.51196812	-0.79059203	1.64847472	-12.62390058	4.10851565	12.47193956	-0.26633604	0.47787026	4.83542542	-0.41296937	8.98585156	3.09510330	9.79871310	13.92427480
4216	42.15000000	9.20057043	-0.06994302	6.97261874	9.49210067	-0.28187625	4.46750169	10.21045880	2.77238866	-1.06527978	6.49737039	-0.42158736	0.28350063	0.57653291	-10.97169301	3.11501516	12.73635691	-0.03840661	-0.30949665	4.75031211	-0.51862052	8.89872030	1.20444203	9.74533559	10.23684270
4217	42.16000000	9.22902277	0.19635398	7.02773317	9.53879012	-1.49457006	4.21599708	9.71500091	4.05999784	-1.13924533	6.22033648	0.59721080	0.96639239	0.00082040	-8.93211426	2.92386221	12.78778894	0.06309274	-0.73334890	4.99301652	-0.00458841	8.79284701	-0.61116806	9.99648378	7.22552441
4218	42.17000000	9.15260550	0.24612549	6.95880258	9.30739809	-2.20720251	3.91199549	9.15593029	5.49512613	-0.14602476	6.61507482	0.78818604	1.00808533	-0.00817089	-7.21886209	3.69226749	12.15020534	0.45548678	-0.52794775	5.16706545	0.60405241	8.80079792	-1.16150516	10.41206892	6.63259405
4219	42.18000000	8.90452937	0.21792408	6.96323400	8.96200589	-2.24017114	3.62298922	9.20207179	6.05939678	0.87358939	7.76797900	0.68718041	0.69737842	0.03301404	-5.75498550	4.95035010	11.65606406	0.51300528	-0.23500209	4.76027095	0.57397976	8.87151533	-1.49136778	7.91217303	6.57712040
4220	42.19000000	8.57162903	0.16614744	6.94453218	8.68843123	-1.61260229	3.38987212	9.41665531	5.59103412	1.54843572	9.31196519	0.37226356	0.33728161	-0.26469663	-4.28175989	5.99296551	11.44608978	0.20218786	-0.14418787	4.66775326	0.70062543	8.88699552	-1.07753471	3.82800408	6.79536911
4221	42.20000000	8.16431738	0.11425366	6.85080740	8.61802917	-0.67151818	3.33225291	9.50616009	4.75282285	1.58132712	10.87021972	0.09502524	-0.00675435	-0.46537653	-2.83926318	6.54854162	10.78196745	0.31008065	-0.14907066	4.92992377	1.16469879	8.76823248	-0.89643824	1.34082414	7.26764704
